<?xml version="1.0" encoding="UTF-8" standalone="no"?>
<!DOCTYPE svg PUBLIC "-//W3C//DTD SVG 1.1//EN"
 "http://www.w3.org/Graphics/SVG/1.1/DTD/svg11.dtd">
<!-- Generated by graphviz version 2.43.20190912.0211 (20190912.0211)
 -->
<!-- Title: G Pages: 1 -->
<svg width="534pt" height="248pt"
 viewBox="0.00 0.00 534.20 248.20" xmlns="http://www.w3.org/2000/svg" xmlns:xlink="http://www.w3.org/1999/xlink">
<g id="graph0" class="graph" transform="scale(1 1) rotate(0) translate(21.6 226.6)">
<title>G</title>
<polygon fill="#111111" stroke="transparent" points="-21.6,21.6 -21.6,-226.6 512.6,-226.6 512.6,21.6 -21.6,21.6"/>
<!-- ImgurApi.js -->
<g id="node1" class="node">
<title>ImgurApi.js</title>
<path fill="none" stroke="#c6c5fe" d="M359.83,-105C359.83,-105 290.17,-105 290.17,-105 286.33,-105 282.5,-101.17 282.5,-97.33 282.5,-97.33 282.5,-89.67 282.5,-89.67 282.5,-85.83 286.33,-82 290.17,-82 290.17,-82 359.83,-82 359.83,-82 363.67,-82 367.5,-85.83 367.5,-89.67 367.5,-89.67 367.5,-97.33 367.5,-97.33 367.5,-101.17 363.67,-105 359.83,-105"/>
<text text-anchor="middle" x="325" y="-89.8" font-family="Arial" font-size="14.00" fill="#c6c5fe">ImgurApi.js</text>
</g>
<!-- Session.js -->
<g id="node2" class="node">
<title>Session.js</title>
<path fill="none" stroke="#cfffac" d="M483.33,-64C483.33,-64 420.67,-64 420.67,-64 416.83,-64 413,-60.17 413,-56.33 413,-56.33 413,-48.67 413,-48.67 413,-44.83 416.83,-41 420.67,-41 420.67,-41 483.33,-41 483.33,-41 487.17,-41 491,-44.83 491,-48.67 491,-48.67 491,-56.33 491,-56.33 491,-60.17 487.17,-64 483.33,-64"/>
<text text-anchor="middle" x="452" y="-48.8" font-family="Arial" font-size="14.00" fill="#cfffac">Session.js</text>
</g>
<!-- ImgurApi.js&#45;&gt;Session.js -->
<g id="edge1" class="edge">
<title>ImgurApi.js&#45;&gt;Session.js</title>
<path fill="none" stroke="#757575" d="M361.15,-81.97C375,-77.43 391.08,-72.16 405.77,-67.34"/>
<polygon fill="#757575" stroke="#757575" points="407.27,-70.53 415.68,-64.09 405.09,-63.88 407.27,-70.53"/>
</g>
<!-- ImgurFav.js -->
<g id="node3" class="node">
<title>ImgurFav.js</title>
<path fill="none" stroke="#c6c5fe" d="M83.83,-64C83.83,-64 12.17,-64 12.17,-64 8.33,-64 4.5,-60.17 4.5,-56.33 4.5,-56.33 4.5,-48.67 4.5,-48.67 4.5,-44.83 8.33,-41 12.17,-41 12.17,-41 83.83,-41 83.83,-41 87.67,-41 91.5,-44.83 91.5,-48.67 91.5,-48.67 91.5,-56.33 91.5,-56.33 91.5,-60.17 87.67,-64 83.83,-64"/>
<text text-anchor="middle" x="48" y="-48.8" font-family="Arial" font-size="14.00" fill="#c6c5fe">ImgurFav.js</text>
</g>
<!-- ImgurFav.js&#45;&gt;ImgurApi.js -->
<g id="edge2" class="edge">
<title>ImgurFav.js&#45;&gt;ImgurApi.js</title>
<path fill="none" stroke="#757575" d="M76.86,-41C114.86,-27.17 184.22,-8.61 237,-32.5 259.09,-42.5 253.15,-59.57 273,-73.5 274.87,-74.81 276.83,-76.05 278.86,-77.22"/>
<polygon fill="#757575" stroke="#757575" points="277.54,-80.48 288.04,-81.92 280.73,-74.25 277.54,-80.48"/>
</g>
<!-- ImgurPost.js -->
<g id="node4" class="node">
<title>ImgurPost.js</title>
<path fill="none" stroke="#c6c5fe" d="M222.83,-64C222.83,-64 146.17,-64 146.17,-64 142.33,-64 138.5,-60.17 138.5,-56.33 138.5,-56.33 138.5,-48.67 138.5,-48.67 138.5,-44.83 142.33,-41 146.17,-41 146.17,-41 222.83,-41 222.83,-41 226.67,-41 230.5,-44.83 230.5,-48.67 230.5,-48.67 230.5,-56.33 230.5,-56.33 230.5,-60.17 226.67,-64 222.83,-64"/>
<text text-anchor="middle" x="184.5" y="-48.8" font-family="Arial" font-size="14.00" fill="#c6c5fe">ImgurPost.js</text>
</g>
<!-- ImgurFav.js&#45;&gt;ImgurPost.js -->
<g id="edge3" class="edge">
<title>ImgurFav.js&#45;&gt;ImgurPost.js</title>
<path fill="none" stroke="#757575" d="M91.56,-52.5C103.22,-52.5 116.04,-52.5 128.3,-52.5"/>
<polygon fill="#757575" stroke="#757575" points="128.43,-56 138.43,-52.5 128.43,-49 128.43,-56"/>
</g>
<!-- utils/wording.js -->
<g id="node5" class="node">
<title>utils/wording.js</title>
<path fill="none" stroke="#cfffac" d="M229.33,-105C229.33,-105 139.67,-105 139.67,-105 135.83,-105 132,-101.17 132,-97.33 132,-97.33 132,-89.67 132,-89.67 132,-85.83 135.83,-82 139.67,-82 139.67,-82 229.33,-82 229.33,-82 233.17,-82 237,-85.83 237,-89.67 237,-89.67 237,-97.33 237,-97.33 237,-101.17 233.17,-105 229.33,-105"/>
<text text-anchor="middle" x="184.5" y="-89.8" font-family="Arial" font-size="14.00" fill="#cfffac">utils/wording.js</text>
</g>
<!-- ImgurFav.js&#45;&gt;utils/wording.js -->
<g id="edge4" class="edge">
<title>ImgurFav.js&#45;&gt;utils/wording.js</title>
<path fill="none" stroke="#757575" d="M86.82,-64.03C102.01,-68.66 119.69,-74.05 135.74,-78.94"/>
<polygon fill="#757575" stroke="#757575" points="134.91,-82.35 145.49,-81.91 136.95,-75.65 134.91,-82.35"/>
</g>
<!-- ImgurPost.js&#45;&gt;ImgurApi.js -->
<g id="edge8" class="edge">
<title>ImgurPost.js&#45;&gt;ImgurApi.js</title>
<path fill="none" stroke="#757575" d="M224.45,-64.03C240.09,-68.66 258.29,-74.05 274.82,-78.94"/>
<polygon fill="#757575" stroke="#757575" points="274.28,-82.43 284.86,-81.91 276.27,-75.72 274.28,-82.43"/>
</g>
<!-- ImgurFeed.js -->
<g id="node6" class="node">
<title>ImgurFeed.js</title>
<path fill="none" stroke="#c6c5fe" d="M88.33,-105C88.33,-105 7.67,-105 7.67,-105 3.83,-105 0,-101.17 0,-97.33 0,-97.33 0,-89.67 0,-89.67 0,-85.83 3.83,-82 7.67,-82 7.67,-82 88.33,-82 88.33,-82 92.17,-82 96,-85.83 96,-89.67 96,-89.67 96,-97.33 96,-97.33 96,-101.17 92.17,-105 88.33,-105"/>
<text text-anchor="middle" x="48" y="-89.8" font-family="Arial" font-size="14.00" fill="#c6c5fe">ImgurFeed.js</text>
</g>
<!-- ImgurFeed.js&#45;&gt;ImgurApi.js -->
<g id="edge5" class="edge">
<title>ImgurFeed.js&#45;&gt;ImgurApi.js</title>
<path fill="none" stroke="#757575" d="M86.22,-105.01C100.4,-108.84 116.81,-112.61 132,-114.5 178.31,-120.27 190.66,-120.01 237,-114.5 249.42,-113.02 262.62,-110.4 274.9,-107.5"/>
<polygon fill="#757575" stroke="#757575" points="276.08,-110.81 284.95,-105.01 274.4,-104.01 276.08,-110.81"/>
</g>
<!-- ImgurFeed.js&#45;&gt;ImgurPost.js -->
<g id="edge6" class="edge">
<title>ImgurFeed.js&#45;&gt;ImgurPost.js</title>
<path fill="none" stroke="#757575" d="M86.82,-81.97C102.01,-77.34 119.69,-71.95 135.74,-67.06"/>
<polygon fill="#757575" stroke="#757575" points="136.95,-70.35 145.49,-64.09 134.91,-63.65 136.95,-70.35"/>
</g>
<!-- ImgurFeed.js&#45;&gt;utils/wording.js -->
<g id="edge7" class="edge">
<title>ImgurFeed.js&#45;&gt;utils/wording.js</title>
<path fill="none" stroke="#757575" d="M96.04,-93.5C104.32,-93.5 113.04,-93.5 121.65,-93.5"/>
<polygon fill="#757575" stroke="#757575" points="121.67,-97 131.67,-93.5 121.67,-90 121.67,-97"/>
</g>
<!-- ImgurProfile.js -->
<g id="node7" class="node">
<title>ImgurProfile.js</title>
<path fill="none" stroke="#c6c5fe" d="M369.33,-64C369.33,-64 280.67,-64 280.67,-64 276.83,-64 273,-60.17 273,-56.33 273,-56.33 273,-48.67 273,-48.67 273,-44.83 276.83,-41 280.67,-41 280.67,-41 369.33,-41 369.33,-41 373.17,-41 377,-44.83 377,-48.67 377,-48.67 377,-56.33 377,-56.33 377,-60.17 373.17,-64 369.33,-64"/>
<text text-anchor="middle" x="325" y="-48.8" font-family="Arial" font-size="14.00" fill="#c6c5fe">ImgurProfile.js</text>
</g>
<!-- ImgurProfile.js&#45;&gt;Session.js -->
<g id="edge9" class="edge">
<title>ImgurProfile.js&#45;&gt;Session.js</title>
<path fill="none" stroke="#757575" d="M377.2,-52.5C385.55,-52.5 394.17,-52.5 402.45,-52.5"/>
<polygon fill="#757575" stroke="#757575" points="402.7,-56 412.7,-52.5 402.7,-49 402.7,-56"/>
</g>
<!-- Login.js -->
<g id="node8" class="node">
<title>Login.js</title>
<path fill="none" stroke="#c6c5fe" d="M348.83,-23C348.83,-23 301.17,-23 301.17,-23 297.33,-23 293.5,-19.17 293.5,-15.33 293.5,-15.33 293.5,-7.67 293.5,-7.67 293.5,-3.83 297.33,0 301.17,0 301.17,0 348.83,0 348.83,0 352.67,0 356.5,-3.83 356.5,-7.67 356.5,-7.67 356.5,-15.33 356.5,-15.33 356.5,-19.17 352.67,-23 348.83,-23"/>
<text text-anchor="middle" x="325" y="-7.8" font-family="Arial" font-size="14.00" fill="#c6c5fe">Login.js</text>
</g>
<!-- Login.js&#45;&gt;Session.js -->
<g id="edge10" class="edge">
<title>Login.js&#45;&gt;Session.js</title>
<path fill="none" stroke="#757575" d="M356.58,-21.53C371.42,-26.4 389.55,-32.34 405.94,-37.72"/>
<polygon fill="#757575" stroke="#757575" points="405.28,-41.19 415.87,-40.98 407.46,-34.54 405.28,-41.19"/>
</g>
<!-- TabBar.js -->
<g id="node9" class="node">
<title>TabBar.js</title>
<path fill="none" stroke="#cfffac" d="M76.33,-205C76.33,-205 19.67,-205 19.67,-205 15.83,-205 12,-201.17 12,-197.33 12,-197.33 12,-189.67 12,-189.67 12,-185.83 15.83,-182 19.67,-182 19.67,-182 76.33,-182 76.33,-182 80.17,-182 84,-185.83 84,-189.67 84,-189.67 84,-197.33 84,-197.33 84,-201.17 80.17,-205 76.33,-205"/>
<text text-anchor="middle" x="48" y="-189.8" font-family="Arial" font-size="14.00" fill="#cfffac">TabBar.js</text>
</g>
<!-- Upload.js -->
<g id="node10" class="node">
<title>Upload.js</title>
<path fill="none" stroke="#c6c5fe" d="M76.83,-164C76.83,-164 19.17,-164 19.17,-164 15.33,-164 11.5,-160.17 11.5,-156.33 11.5,-156.33 11.5,-148.67 11.5,-148.67 11.5,-144.83 15.33,-141 19.17,-141 19.17,-141 76.83,-141 76.83,-141 80.67,-141 84.5,-144.83 84.5,-148.67 84.5,-148.67 84.5,-156.33 84.5,-156.33 84.5,-160.17 80.67,-164 76.83,-164"/>
<text text-anchor="middle" x="48" y="-148.8" font-family="Arial" font-size="14.00" fill="#c6c5fe">Upload.js</text>
</g>
<!-- Upload.js&#45;&gt;ImgurApi.js -->
<g id="edge11" class="edge">
<title>Upload.js&#45;&gt;ImgurApi.js</title>
<path fill="none" stroke="#757575" d="M84.56,-151.35C122.79,-149.43 185.07,-144.28 237,-130.5 256.1,-125.43 276.47,-116.95 292.7,-109.39"/>
<polygon fill="#757575" stroke="#757575" points="294.22,-112.54 301.73,-105.07 291.2,-106.22 294.22,-112.54"/>
</g>
<!-- Upload.js&#45;&gt;utils/wording.js -->
<g id="edge12" class="edge">
<title>Upload.js&#45;&gt;utils/wording.js</title>
<path fill="none" stroke="#757575" d="M75.25,-140.98C95.86,-131.95 124.76,-119.27 147.52,-109.28"/>
<polygon fill="#757575" stroke="#757575" points="149.1,-112.41 156.85,-105.19 146.29,-106 149.1,-112.41"/>
</g>
</g>
</svg>
